<svg id="Layer_1" enable-background="new 0 0 24 24" viewBox="0 0 24 24" xmlns="http://www.w3.org/2000/svg" xmlns:xlink="http://www.w3.org/1999/xlink" width="300" height="300" version="1.1" xmlns:svgjs="http://svgjs.dev/svgjs"><g transform="matrix(1,0,0,1,0,0)"><linearGradient id="SVGID_1_" gradientUnits="userSpaceOnUse" x1="1.125" x2="22.875" y1="6.929" y2="17.071"><stop stop-opacity="0.2" stop-color="#ffffff" offset="0"/><stop stop-opacity="0" stop-color="#ffffff" offset="1"/></linearGradient><g><circle cx="12.033" cy="12.054" fill="#fcd582" r="11" fill-opacity="1" data-original-color="#ef548aff" stroke="none" stroke-opacity="1"/><path d="m12 0c-6.6166992 0-12 5.3833008-12 12s5.3833008 12 12 12 12-5.3833008 12-12-5.3833008-12-12-12zm7.8609619 5.8394775c1.3174438 1.6773071 2.1135254 3.7802734 2.1343994 6.0688477-2.475769-.5689697-4.7539063-.7077637-6.8656006-.428833-.2669678-.6221313-.5466309-1.2406006-.8495483-1.8532104 2.0778198-.8878785 3.9318237-2.1098633 5.5807495-3.7868043zm-1.38031-1.44104c-1.4476318 1.4990845-3.0924683 2.638916-5.1281128 3.477356-1.0507202-1.8805542-2.2804565-3.7318115-3.7062988-5.5844116.7562866-.1834717 1.541809-.2913819 2.3537597-.2913819 2.47229 0 4.7333984.9065552 6.4806519 2.3984375zm-10.8146363-1.3966064c1.4683228 1.8562012 2.7202148 3.6868286 3.781189 5.5375366-2.4651489.7233276-5.4501343 1.1256714-9.2020874 1.2863159.6714477-3.0132446 2.7059326-5.5106812 5.4208984-6.8238525zm-5.6577759 8.8350219c3.9388428-.1491699 7.3895874-.5493164 10.4040527-1.5077515.2575684.5125732.5032349 1.02771.7332764 1.546814-3.3731689.9334717-6.2868652 3.081665-8.8471069 6.494751-1.4346313-1.7313232-2.2984619-3.9517212-2.2984619-6.3706665 0-.0550537.0073242-.1082764.0082397-.163147zm3.7318116 7.9497071c2.3775635-3.2435913 5.0394287-5.2397461 8.1634521-6.0437622.8881226 2.3681641 1.5198975 4.8353271 1.9276733 7.491272-1.1808471.4917602-2.4742431.7659301-3.8311767.7659301-2.3688354 0-4.5447388-.8317871-6.2599487-2.2134399zm11.9473266.4284057c-.4072876-2.3736572-.996582-4.6290894-1.7904053-6.8066406 1.8141479-.173645 3.7740479-.0041504 5.9136353.5125732-.5077515 2.5977784-2.0236816 4.8359986-4.12323 6.2940674z" fill="#d7b46a" fill-opacity="1" data-original-color="#c72263ff" stroke="none" stroke-opacity="1"/><path d="m12 .25c5.3285522 0 9.8440552 3.4422607 11.4705811 8.2207642-1.5073243-4.9047852-6.0717774-8.4707642-11.4705811-8.4707642s-9.9631958 3.565979-11.4705811 8.4706421c1.6265259-4.7783814 6.1419678-8.2206421 11.4705811-8.2206421z" fill="#ffffff" opacity=".2" fill-opacity="1" data-original-color="#ffffffff" stroke="none" stroke-opacity="1"/><path d="m12 23.75c-4.7450914 0-8.8374472-2.6986141-10.8253527-6.6640053-.2444347-.4875889-.4570514-.9943295-.6351512-1.5175619.1608156.5232897.3563147 1.0308924.5838224 1.5202017 1.9049215 4.096981 6.0538732 6.9113655 10.8766815 6.9113655 4.6758442 0 8.7214317-2.6558895 10.7003746-6.5535698.305975-.6026421.5625458-1.234972.7644005-1.8917618-.1286106.3778324-.2752476.7471523-.4388905 1.1069431-1.9059181 4.1904393-6.1186104 7.0883885-11.0258846 7.0883885z" fill="#010101" opacity=".1" fill-opacity="1" data-original-color="#010101ff" stroke="none" stroke-opacity="1"/><path d="m12 0c-6.6166992 0-12 5.3833008-12 12s5.3833008 12 12 12 12-5.3833008 12-12-5.3833008-12-12-12z" fill="url(#SVGID_1_)" data-original-color="SVGID_1_" stroke="none" stroke-opacity="1"/></g><g/><g/><g/><g/><g/><g/><g/><g/><g/><g/><g/><g/><g/><g/><g/></g></svg>