<?xml version="1.0" encoding="UTF-8"?>
<svg xmlns="http://www.w3.org/2000/svg" version="1.1" xmlns:svgjs="http://svgjs.dev/svgjs" viewBox="0 0 300 300">
  <defs>
    <style>
      .cls-1 {
        fill: #141413;
      }
    </style>
  </defs>
  <!-- Generator: Adobe Illustrator 28.7.1, SVG Export Plug-In . SVG Version: 1.2.0 Build 142)  -->
  <g>
    <g id="Capa_1">
      <path class="cls-1" d="M204.5,76.5c-3.2-3.2-8.3-3.2-11.5,0,0,0,0,0,0,0l-11,11,32,32,11-11c3.2-3.2,3.2-8.3,0-11.5,0,0,0,0,0,0l-20.6-20.6Z"/>
      <path class="cls-1" d="M91,178.5l87.6-87.6,32,32-87.6,87.6-32-32Z"/>
      <path class="cls-1" d="M88.8,180.9c-1.3,1.3-2.3,3-2.9,4.8l-11.5,35.4c-.5,1.4-.2,3,.7,4.3,1.2,1.7,3.4,2.4,5.4,1.8l35.4-11.5c1.8-.6,3.4-1.6,4.8-2.9l-31.8-31.8h0Z"/>
    </g>
  </g>
</svg>