<?xml version="1.0" encoding="UTF-8"?>
<svg id="Capa_1" xmlns="http://www.w3.org/2000/svg" viewBox="0 0 481.27 578.27">
  <defs>
    <style>
      .cls-1 {
        font-family: Impact, Impact;
        font-size: 50.84px;
      }

      .cls-1, .cls-2 {
        fill: #252423;
      }

      .cls-3 {
        letter-spacing: .02em;
      }

      .cls-4 {
        letter-spacing: -.07em;
      }
    </style>
  </defs>
  <g>
    <path class="cls-2" d="M.4,247.05c4.42-5.43,10.5-9.09,8.09-16.82C-.09,232.97-.67,234.12.4,247.05Z"/>
    <rect class="cls-2" x="15.09" width="29.1" height="152.21"/>
    <path class="cls-2" d="M284.72,483.69c-.13-2.08-.38-4.16-.38-6.24-.02-156.96-.02-313.91-.02-470.87V.1h29.79c9.21,92.53,18.4,185,27.6,277.47.35-.03.71-.05,1.06-.08V.08h29v5.97c0,157.12,0,314.24,0,471.36,0,2.1.04,4.19.06,6.29h-29.04c-.23-.76-.6-1.51-.68-2.29-1.7-16.84-3.37-33.68-5.04-50.52-3.03-30.63-6.03-61.27-9.07-91.9-3.44-34.64-6.91-69.28-10.39-103.92-1.04-10.35-2.12-20.69-3.19-31.04l-.8.05v7.7c0,88.7,0,177.41,0,266.11,0,1.93.08,3.87.12,5.8h-29.04Z"/>
    <path class="cls-2" d="M177.27,483.69c.02-95.32.05-190.64.06-285.96,0-63.87,0-127.74,0-191.61,0-1.91,0-3.82,0-6.01h29.82c9.16,92.15,18.33,184.4,27.5,276.65.23-.01.46-.02.69-.03V.19h29.14c.1,1.62.29,3.32.29,5.01.01,157.9.01,315.8,0,473.7,0,1.6-.25,3.19-.38,4.79h-29.04c-1.59-16.03-3.17-32.07-4.76-48.1-3.03-30.63-6.03-61.26-9.08-91.89-3.43-34.48-6.88-68.95-10.35-103.42-1.25-12.41-2.57-24.81-3.86-37.22-.26.02-.51.05-.77.07,0,1.77,0,3.54,0,5.31,0,89.82,0,179.64,0,269.46,0,1.93-.14,3.86-.22,5.79h-29.04Z"/>
    <path class="cls-2" d="M72.71,483.69c1.76-26.87,3.48-53.75,5.27-80.61,1.77-26.55,3.62-53.09,5.42-79.64,2.46-36.2,4.93-72.4,7.37-108.6,2.08-30.73,4.11-61.46,6.19-92.19,2.45-36.2,4.91-72.4,7.37-108.6.31-4.63.62-9.27.93-14.06h29.77c.44,5.74.92,11.33,1.28,16.92,3.03,46.5,6,93.01,9.08,139.51,3.37,51.01,6.87,102,10.24,153.01,2.76,41.67,5.42,83.36,8.13,125.03.97,14.97,1.98,29.93,2.93,44.89.09,1.43-.05,2.88-.09,4.31h-29.04c.02-1.13.11-2.26.04-3.38-2.08-32.47-4.17-64.94-6.28-97.41-.43-6.69-.92-13.39-1.37-20.07h-20.25c-2.67,40.54-5.31,80.7-7.95,120.86h-29.04ZM111.91,332.53h15.9c-2.54-37.8-5.05-75.15-7.56-112.51-.29.01-.57.03-.86.04-2.49,37.41-4.98,74.83-7.48,112.47Z"/>
    <path class="cls-2" d="M381.53,483.69c1.43-22.69,2.8-45.38,4.3-68.07,1.77-26.87,3.64-53.73,5.47-80.6,2.45-36.04,4.92-72.07,7.37-108.11,2.06-30.41,4.08-60.82,6.14-91.22,2.47-36.52,4.96-73.04,7.43-109.56.58-8.64,1.13-17.29,1.71-26.11h29.8c.48,6.33,1,12.57,1.41,18.81,3.03,46.5,6,93.01,9.08,139.51,3.38,51.17,6.89,102.33,10.28,153.49,3.07,46.5,6.07,93.01,9.06,139.51.69,10.77,1.25,21.56,1.88,32.34h-29.04c-2.08-32.96-4.16-65.92-6.26-98.87-.47-7.34-1-14.68-1.49-22h-20.31c-2.6,40.53-5.18,80.7-7.76,120.88h-29.04ZM428.95,219.87c-.28,0-.56,0-.84.01-2.5,37.52-5,75.03-7.51,112.62h15.89c-2.53-37.86-5.04-75.25-7.54-112.64Z"/>
    <path class="cls-2" d="M15.09,0h29.1v152.21H15.09V0Z"/>
    <path class="cls-2" d="M50.45,458.35c-.14-5.61-.17-11.33-1.3-16.79-1.41-6.77-8.55-10.06-13.5-6.48-2.48,1.79-3.92,4.93-5.91,7.57-.13-.28-.53-.98-.82-1.72-1.4-3.56-4.04-5.54-7.97-5.38-4.26.18-6.64,2.82-7.41,6.65-.63,3.14-1,6.37-1.05,9.56-.14,8.38-.05,16.76-.06,25.14,0,1.85,0,3.7,0,5.5h38.06c0-8.29.15-16.17-.05-24.05ZM28.72,465.26h-5.99c-.01-1.74,0-3.02,0-3.88,0-1.21,0-2.46,0-2.91-.01-.61-.02-.71,0-.97.04-.55.14-1.86,1-2.91.35-.42.41-.31,1-.97.58-.65.71-.97,1-.97s.42.32,1,.97c.49.55.75.71,1,.97.44.45.92,1.28,1,2.91v7.76ZM40.57,465.64h-5.98c0-3.85-.27-7.52.14-11.12.15-1.29,1.96-2.4,3.01-3.6.94,1.15,2.57,2.24,2.69,3.47.36,3.61.13,7.28.13,11.25Z"/>
    <path class="cls-2" d="M12.82,403.53c-.27-4.25-.08-11.42,3.68-18.1,1.74-3.09,3.42-4.62,3.97-5.1,4.59-4.01,9.92-4.11,11.48-4.12,6.54,0,11.84,2.66,14.65,8.88,5.5,12.15,5.5,24.62.02,36.79-2.83,6.27-8.18,8.83-14.68,8.83-1.75,0-7.38,0-11.61-4.2-1.1-1.09-1.86-2.23-2.6-3.59-3.49-6.38-4.57-14.06-4.91-19.39ZM39.63,403.56c0-6.07-2.99-9.84-7.77-9.79-4.72.05-7.79,4.01-7.7,9.95.09,5.87,2.91,9.35,7.63,9.42,5,.07,7.84-3.4,7.85-9.57Z"/>
    <path class="cls-2" d="M34.98,277.03c3.29-7.03,9.92-6.04,15.53-8.32,0,5.33.13,10.14-.1,14.93-.05,1.05-1.21,2.58-2.23,2.97-8.28,3.16-8.3,3.09-7.34,13.14h9.38v17.14H12.44c0-2.58-.01-5.24,0-7.9.05-7.89.08-15.77.2-23.66.03-1.76.2-3.55.59-5.27,1.19-5.26,3.29-9.99,9.54-11.04,6.04-1.01,9.67,2.22,12.22,8ZM30.62,299.74c0-3.65.4-6.91-.18-10-.26-1.37-2.35-2.97-3.89-3.32-.81-.19-3,1.99-3.19,3.29-.47,3.24-.16,6.58-.16,10.03h7.42Z"/>
    <path class="cls-2" d="M50.55,248.05s-4.91-1.84-4.94-1.88c0,0,0,0,0,0,0,0,0,0-.02-.02-.02-.03-.04-.04-.04-.05,0-.02.14,0,.14,0h0v-15.51h0c1.62-.32,3.23-.65,4.85-.97v-19.39c-.31.09-.42.12-.42.12,0,0,.41-.13.42-.12.06.14-37.82,15.51-37.82,15.51v22.3s0,0,0,0t0,0c5.24,2.97,9.59,5.25,12.61,6.79,5.87,2.98,9.1,4.37,16.7,8.2,3.65,1.84,6.61,3.39,8.51,4.4v-19.39ZM29.16,241.26c-1.75-.41-3.17-.75-4.1-.97,0-1.62,0-3.23,0-4.85v-.97c5.72-1.01,10.95-1.94,10.95-1.94,0,0-2.69.48-2.69.48s.57-.1,2.69-.48c.12,2.05.07,3.7,0,4.85-.08,1.29,0,2.59,0,3.88v1.94s-2.71-.94-4.58-1.4c-.04-.01-.14-.04-2.27-.54Z"/>
    <path class="cls-2" d="M24.37,161.75c.65,9.7.97,14.54.97,14.54-.65.65-1.29,1.29-1.94,1.94-.45.51-1.92,2.33-1.94,4.85-.02,2.56,1.48,4.34,1.94,4.85,1.43-.04,2.32-.47,2.91-.97,2.1-1.79.79-4.97,1.67-11.5.43-3.23,1.21-5.26,1.62-6.52,1.28-3.93,3.57-6.85,7.94-7.04,4.66-.2,8.23,1.84,10.11,6.29,3.56,8.43,3.47,17.24,1.82,26.07-1.1,5.92-3.5,11.05-9.63,13.12-.57.19-1.2.18-2.49.36,0-4.78-.06-9.36.05-13.92.02-.65.31-1.09.31-1.09.3-.59.84-1.16.89-1.21,0,0,0,0,0,0,1.08-1.92,1.76-2.78,2.26-3.59,1.61-2.62,2.74-7.1.97-8.73-.35-.32-1.14-.83-2.91-.61-.25.11-.6.3-.97.61-.84.71-1.17,1.58-1.3,1.94-1.07,2.93-1.25,9.07-1.25,9.07-.69,3.61-1.21,7.37-2.64,10.68-3.2,7.41-12.18,7.91-16.54,1.17-4.73-7.3-4.64-26.18.23-33.49,1.56-2.35,4.75-4.32,4.75-4.32,1.34-1.12,2.47-1.99,3.17-2.51Z"/>
    <path class="cls-2" d="M.4,247.05c-1.07-12.93-.49-14.08,8.09-16.82,2.41,7.73-3.67,11.38-8.09,16.82Z"/>
    <path class="cls-2" d="M35.11,330.97c3.26-7.03,9.84-6.04,15.41-8.32,0,5.33.13,10.14-.1,14.93-.05,1.05-1.2,2.58-2.21,2.97-8.21,3.16-8.24,3.09-7.28,13.14h9.3v17.14H12.74c0-2.58-.01-5.24,0-7.9.05-7.89.08-15.77.2-23.66.03-1.76.2-3.55.58-5.27,1.18-5.26,3.26-9.99,9.47-11.04,5.99-1.01,9.6,2.22,12.12,8ZM30.78,353.68c0-3.65.39-6.91-.18-10-.26-1.37-2.33-2.97-3.86-3.32-.8-.19-2.98,1.99-3.17,3.29-.47,3.24-.15,6.58-.15,10.03h7.36Z"/>
  </g>
  <text class="cls-1" transform="translate(5.17 556.33)"><tspan x="0" y="0">MU</tspan><tspan class="cls-4" x="64.25" y="0">L</tspan><tspan x="79.94" y="0">TIMEDIA FREE</tspan><tspan class="cls-3" x="342.98" y="0">L</tspan><tspan x="363.58" y="0">ANCE</tspan></text>
</svg>