<?xml version="1.0" encoding="UTF-8"?>
<svg xmlns="http://www.w3.org/2000/svg" version="1.1" viewBox="0 0 512 512">
  <defs>
    <style>
      .cls-1 {
        fill: #010101;
      }
    </style>
  </defs>
  <!-- Generator: Adobe Illustrator 28.7.3, SVG Export Plug-In . SVG Version: 1.2.0 Build 164)  -->
  <g>
    <g id="Capa_1">
      <path class="cls-1" d="M143,512h-30.8l-8.3-127.6h-21l-8.3,127.6h-30.8L78.5,0h30.8s33.8,512,33.8,512ZM101.7,353.6l-8.2-123.1-8.3,123.1h16.5,0Z"/>
      <path class="cls-1" d="M215.1,512l-30-300.3v300.3h-30.8V0h30.8l30,301.8V0h30.8v512h-30.8Z"/>
      <path class="cls-1" d="M327.7,512l-30-300.3v300.3h-30.8V0h30.8l30,301.8V0h30.8v512h-30.8Z"/>
      <path class="cls-1" d="M468.1,512h-30.8l-8.3-127.6h-21l-8.3,127.6h-30.8L403.5,0h30.8l33.8,512ZM426.8,353.6l-8.2-123.1-8.3,123.1h16.5,0Z"/>
    </g>
  </g>
</svg>