<?xml version="1.0" encoding="UTF-8"?>
<svg xmlns="http://www.w3.org/2000/svg" version="1.1" viewBox="0 0 64.1 64">
  <defs>
    <style>
      .cls-1 {
        fill: #252423;
      }
    </style>
  </defs>
  <!-- Generator: Adobe Illustrator 28.7.2, SVG Export Plug-In . SVG Version: 1.2.0 Build 154)  -->
  <g>
    <g id="Capa_1">
      <g id="Capa_1-2" data-name="Capa_1">
        <path class="cls-1" d="M33.7,64.6V-.2h4.7c1.5,12.3,2.9,24.8,4.4,37.1h.2V-.2h4.6v64.7h-4.6s0-.2,0-.3c-.3-2.2-.5-4.6-.8-6.8-.5-4-1-8.2-1.4-12.2-.5-4.7-1.1-9.3-1.7-13.9-.2-1.4-.3-2.7-.5-4.1h0v37.4h-4.7Z"/>
        <path class="cls-1" d="M16.6,64.6V-.2h4.7c1.5,12.3,2.9,24.7,4.4,37h.1V-.2h4.6v64.7h-4.6c-.2-2.1-.5-4.3-.8-6.5-.5-4-1-8.2-1.4-12.3-.5-4.7-1.1-9.2-1.6-13.9-.2-1.6-.4-3.3-.6-5h-.1v37.5h-4.6v.2Z"/>
        <path class="cls-1" d="M0,64.6c.3-3.5.6-7.2.8-10.8.3-3.5.6-7.1.9-10.6.4-4.9.8-9.7,1.2-14.6.3-4.1.7-8.2,1-12.3.4-4.9.8-9.7,1.2-14.6,0-.6,0-1.2,0-1.9h4.7c0,.8.1,1.5.2,2.2.5,6.2,1,12.4,1.4,18.7.5,6.9,1.1,13.7,1.6,20.4.4,5.6.9,11.1,1.3,16.7.2,2,.3,4,.5,6v.6h-4.6v-.5c-.3-4.4-.7-8.7-1-13.1,0-.9-.1-1.8-.2-2.7h-3.2c-.4,5.5-.8,10.8-1.3,16.2H0v.3ZM6.2,44.3h2.5c-.4-5.1-.8-10-1.2-15.1h0c-.4,5.1-.8,10-1.2,15.1h0Z"/>
        <path class="cls-1" d="M49,64.6c.2-3,.4-6.1.7-9.1.3-3.5.6-7.2.9-10.8.4-4.9.8-9.6,1.2-14.5.3-4,.7-8.1,1-12.2.4-4.9.8-9.8,1.2-14.7,0-1.1.2-2.3.3-3.5h4.7c0,.8.2,1.7.2,2.5.5,6.3,1,12.4,1.4,18.6.5,6.9,1.1,13.7,1.6,20.5.5,6.3,1,12.4,1.4,18.7,0,1.4.2,2.8.3,4.4h-4.6c-.3-4.5-.7-8.8-1-13.3,0-1-.2-1.9-.2-2.9h-3.2c-.4,5.5-.8,10.8-1.2,16.2h-4.7ZM56.6,29.3h0c-.4,5.1-.8,10-1.2,15.1h2.5c-.4-5.1-.8-10.1-1.2-15.1h0Z"/>
      </g>
    </g>
  </g>
</svg>