<svg height="459pt" viewBox="0 -7 459.19507 459" width="459pt" xmlns="http://www.w3.org/2000/svg"><path d="m329.113281 288.464844c-3.351562-9.945313.148438-20.914063 8.640625-27.082032l118.144532-85.839843c2.800781-2.035157 3.976562-5.644531 2.90625-8.941407-1.070313-3.292968-4.136719-5.527343-7.601563-5.53125h-146.042969c-10.402344.019532-19.625-6.683593-22.824218-16.582031l-45.125-138.890625c-1.082032-3.28125-4.144532-5.4999998-7.601563-5.4999998s-6.519531 2.2187498-7.601563 5.4999998l-45.140624 138.890625c-3.199219 9.898438-12.421876 16.601563-22.824219 16.582031h-146.042969c-3.464844 0-6.535156 2.230469-7.609375 5.527344-1.070313 3.296875.101563 6.910156 2.90625 8.945313l118.144531 85.839843c8.429688 6.097657 11.953125 16.945313 8.71875 26.832032l-53.207031 147.136718c-1.039063 3.242188.179687 6.78125 2.992187 8.695313 2.777344 2.117187 6.628907 2.117187 9.410157 0l126.070312-93.792969c8.417969-6.160156 19.851563-6.179687 28.289063-.046875l126.207031 93.886719c2.8125 2 6.589844 1.96875 9.371094-.074219s3.9375-5.640625 2.867187-8.925781zm0 0"/></svg>